<svg enable-background="new 0 0 154 50" height="50" viewBox="0 0 154 50" width="154" xmlns="http://www.w3.org/2000/svg"><g fill="#fff"><path d="m16.52 18.683c-2.878 0-5.571.809-7.864 2.208v-4.378-.823-13.263-1.398h-7.254v31.968c-.015.274-.024.552-.024.83 0 8.352 6.793 15.145 15.143 15.145 8.352 0 15.146-6.793 15.146-15.145-.001-8.35-6.795-15.144-15.147-15.144zm0 22.986c-4.323 0-7.84-3.518-7.84-7.842 0-4.323 3.517-7.841 7.84-7.841 4.325 0 7.843 3.518 7.843 7.841 0 4.324-3.518 7.842-7.843 7.842z"/><path d="m55.317 20.183v15.081c0 .86-.138 1.711-.388 2.433-.904 1.994-2.82 3.533-4.872 3.923-.405.061-.771.093-1.116.094-.358-.001-.717-.032-1.089-.087-2.084-.394-4.004-1.902-4.878-3.816-.288-.82-.429-1.653-.429-2.546v-15.082h-7.625v15.081c0 7.265 5.391 12.972 12.81 13.567.398.043.739.061 1.073.061h.252c.327 0 .67-.018 1.041-.058 7.442-.599 12.843-6.306 12.843-13.57v-15.081z"/><path d="m119.462 48.892c-4.057 0-7.868-1.575-10.736-4.436-2.875-2.867-4.46-6.682-4.463-10.74-.006-8.382 6.804-15.206 15.183-15.213h.01c8.374 0 15.189 6.809 15.198 15.182l.003 3.676-22.127.021c.361.679.827 1.309 1.389 1.869 1.48 1.477 3.448 2.289 5.542 2.289h.007c2.251-.004 4.399-.975 5.889-2.666l5.517 4.858c-2.881 3.272-7.035 5.153-11.396 5.159-.007.001-.011.001-.016.001zm-.007-23.036c-.001 0-.002 0-.005 0-2.996.003-5.604 1.695-6.924 4.174l13.854-.015c-1.32-2.473-3.93-4.159-6.925-4.159z"/><path d="m145.212 22.414v-1.507h-.004v-1.477h-7.254v1.477 27.93.055h7.258v-15.841c.734-4.565 5.589-4.925 7.066-4.925.187 0 .361.01.343.004v-7.325c-4.291-0-5.792.477-7.409 1.609z"/><path d="m104.015 24.744v-7.447l-5.498 1.95-7.35 2.561v15.482h-.002c0 .006.002.012.002.016v.383h.028c.173 4.707 2.812 8.975 6.989 11.203l3.461-6.488c-1.915-1.02-3.113-2.998-3.127-5.163h-.002v-12.497z"/><path d="m106.475 6.96-8.026-3.051v-2.841h-7.474v8.161l3.231 1.208-17.07 6.144-.001-.006-4.298 1.555v.005c-3.878 1.375-6.463 4.502-6.642 8.111-.319 5.434 3.821 9.938 9.644 10.524 2.57.215 3.363.64 3.785 1.422.369.713.115 1.431-.076 1.721-.595.896-1.748 1.003-2.779.847-1.816-.276-3.138-1.429-3.857-2.329l-6.455 5.576c2.065 2.964 5.189 4.579 9.522 4.869.217.012.437.016.656.016 5.364 0 10.954-3.112 11.256-9.057.172-2.703-.611-5.105-2.267-6.954-1.962-2.188-4.958-3.435-8.652-3.606-1.807-.105-2.712-1.365-2.646-2.484.062-.792.413-1.293 1.104-1.585l1.916-.698 29.088-10.457c1.49-.538 2.485-1.948 2.493-3.531.011-1.584-.969-3.004-2.452-3.56z"/><path d="m16.521 18.683c-2.878 0-5.572.809-7.865 2.208v-4.378-.823-13.263-1.398h-7.254v31.968c-.015.274-.023.552-.023.83 0 8.352 6.792 15.145 15.142 15.145 8.352 0 15.145-6.793 15.145-15.145 0-8.35-6.793-15.144-15.145-15.144zm0 22.986c-4.322 0-7.84-3.518-7.84-7.842 0-4.323 3.518-7.841 7.84-7.841 4.324 0 7.843 3.518 7.843 7.841 0 4.324-3.519 7.842-7.843 7.842z"/><path d="m55.317 20.183v15.081c0 .86-.138 1.711-.387 2.433-.904 1.994-2.82 3.533-4.872 3.923-.404.061-.77.093-1.115.094-.358-.001-.718-.032-1.089-.087-2.084-.394-4.003-1.902-4.878-3.816-.287-.82-.428-1.653-.428-2.546v-15.082h-7.625v15.081c0 7.265 5.39 12.97 12.809 13.566.398.044.739.062 1.075.062h.251c.327 0 .669-.018 1.042-.058 7.44-.599 12.841-6.306 12.841-13.57v-15.081z"/><path d="m119.462 48.892c-4.058 0-7.868-1.575-10.736-4.436-2.875-2.867-4.46-6.682-4.464-10.74-.006-8.382 6.805-15.206 15.183-15.213h.011c8.373 0 15.189 6.809 15.197 15.182l.004 3.676-22.127.021c.361.679.825 1.309 1.389 1.869 1.479 1.477 3.447 2.289 5.542 2.289h.006c2.252-.004 4.398-.975 5.89-2.666l5.516 4.858c-2.881 3.272-7.034 5.152-11.396 5.159-.006.001-.011.001-.015.001zm-.007-23.036c-.001 0-.002 0-.007 0-2.994.003-5.603 1.695-6.922 4.174l13.853-.015c-1.319-2.473-3.93-4.159-6.924-4.159z"/><path d="m145.212 22.414v-1.507h-.004v-1.477h-7.255v1.477 27.93.055h7.259v-15.841c.732-4.565 5.589-4.925 7.065-4.925.188 0 .361.01.344.004v-7.325c-4.292-0-5.793.477-7.409 1.609z"/><path d="m104.015 24.744v-7.447l-5.498 1.95-7.35 2.561v15.482h-.002c0 .006.002.012.002.016v.383h.028c.173 4.707 2.811 8.975 6.989 11.203l3.461-6.488c-1.916-1.02-3.113-2.998-3.127-5.163h-.002v-12.497z"/></g></svg>